<?xml version="1.0" standalone="no"?><!DOCTYPE svg PUBLIC "-//W3C//DTD SVG 1.1//EN" "http://www.w3.org/Graphics/SVG/1.1/DTD/svg11.dtd"><svg t="1619072340628" class="icon" viewBox="0 0 1024 1024" version="1.1" xmlns="http://www.w3.org/2000/svg" p-id="1358" xmlns:xlink="http://www.w3.org/1999/xlink" width="200" height="200"><defs><style type="text/css"></style></defs><path d="M42.69 789.294c-11.764 0-21.342-9.562-21.342-21.312V127.994c0-11.75 9.578-21.312 21.342-21.312h938.604c11.782 0 21.376 9.562 21.376 21.312v639.99c0 11.75-9.594 21.312-21.376 21.312H42.69z" fill="#5D9CEC" p-id="1359"></path><path d="M981.292 85.338H42.69C19.128 85.338 0.02 104.43 0.02 127.994v639.99c0 23.562 19.108 42.684 42.67 42.684h938.604c23.562 0 42.688-19.122 42.688-42.684V127.994c-0.002-23.564-19.126-42.656-42.69-42.656z m0 682.644H42.69V127.994h938.604v639.988z" fill="#E6E9ED" p-id="1360"></path><path d="M682.682 938.662H341.334l42.546-170.492 256.176-0.062z" fill="#CCD1D9" p-id="1361"></path><path d="M31.91 682.674h960.196v122.054H31.91z" fill="#E6E9ED" p-id="1362"></path><path d="M533.326 746.67c0 11.75-9.546 21.312-21.326 21.312-11.782 0-21.328-9.562-21.328-21.312 0-11.808 9.546-21.372 21.328-21.372 11.78 0 21.326 9.564 21.326 21.372z" fill="#434A54" p-id="1363"></path><path d="M682.682 895.978H341.334c-11.782 0-21.328 9.562-21.328 21.308 0 11.812 9.546 21.376 21.328 21.376H682.68c11.75 0 21.312-9.562 21.312-21.376 0.002-11.744-9.56-21.308-21.31-21.308z" fill="#E6E9ED" p-id="1364"></path><path d="M895.984 298.674H554.686c-11.796 0-21.344-9.562-21.344-21.344s9.546-21.312 21.344-21.312h341.298c11.812 0 21.344 9.53 21.344 21.312s-9.532 21.344-21.344 21.344zM895.984 384.014H554.686c-11.796 0-21.344-9.562-21.344-21.342s9.546-21.342 21.344-21.342h341.298a21.332 21.332 0 0 1 21.344 21.342c0 11.78-9.532 21.342-21.344 21.342zM895.984 469.324H554.686c-11.796 0-21.344-9.532-21.344-21.312s9.546-21.342 21.344-21.342h341.298c11.812 0 21.344 9.562 21.344 21.342s-9.532 21.312-21.344 21.312zM895.984 554.68H554.686c-11.796 0-21.344-9.562-21.344-21.36 0-11.782 9.546-21.312 21.344-21.312h341.298c11.812 0 21.344 9.53 21.344 21.312 0 11.798-9.532 21.36-21.344 21.36z" fill="#434A54" p-id="1365"></path><path d="M415.112 256.018H140.25c-11.782 0-21.342-9.562-21.342-21.342s9.562-21.344 21.342-21.344h274.864c11.782 0 21.328 9.562 21.328 21.344s-9.548 21.342-21.33 21.342zM375.412 341.328H179.34c-11.78 0-21.328-9.532-21.328-21.312 0-11.782 9.546-21.342 21.328-21.342h196.072c11.78 0 21.326 9.562 21.326 21.342s-9.546 21.312-21.326 21.312zM375.396 512.008H179.34c-11.78 0-21.328-9.562-21.328-21.344 0-11.78 9.546-21.342 21.328-21.342h196.056c11.78 0 21.326 9.562 21.326 21.342 0 11.782-9.546 21.344-21.326 21.344zM415.112 597.3H139.64c-11.782 0-21.328-9.5-21.328-21.308 0-11.75 9.546-21.312 21.328-21.312h275.472c11.782 0 21.328 9.562 21.328 21.312 0 11.808-9.546 21.308-21.328 21.308z" fill="#CCD1D9" p-id="1366"></path><path d="M128.092 639.99c-1.296 0-2.594-0.124-3.92-0.376-11.578-2.124-19.234-13.25-17.078-24.876 1.376-7.376 35.062-181.416 162.79-229.382 29.92-11.218 72.794-39.842 107.074-112.402 21.156-44.78 28.67-84.434 28.748-84.84 2.14-11.594 13.282-19.218 24.86-17.094 11.592 2.156 19.234 13.312 17.092 24.874-1.376 7.406-35.062 181.462-162.79 229.398-29.92 11.25-72.794 39.874-107.074 112.434-21.17 44.766-28.67 84.452-28.748 84.826-1.906 10.25-10.876 17.438-20.954 17.438z" fill="#E6E9ED" p-id="1367"></path><path d="M426.66 639.99c-10.094 0-19.046-7.188-20.954-17.438-0.296-1.562-30.762-157.792-135.822-197.26-127.728-47.934-161.416-221.99-162.79-229.396-2.156-11.562 5.5-22.718 17.078-24.874 11.578-2.124 22.702 5.5 24.874 17.062 0.296 1.594 30.764 157.838 135.822 197.274 127.728 47.966 161.416 222.008 162.79 229.382 2.14 11.624-5.5 22.75-17.092 24.876a20.94 20.94 0 0 1-3.906 0.374z" fill="#F5F7FA" p-id="1368"></path></svg>